<svg width="48" height="48" viewBox="0 0 48 48" fill="none" xmlns="http://www.w3.org/2000/svg">
<mask id="mask0_88_957" style="mask-type:alpha" maskUnits="userSpaceOnUse" x="0" y="0" width="48" height="48">
<rect width="48" height="48" fill="#D9D9D9"/>
</mask>
<g mask="url(#mask0_88_957)">
<path d="M9.5 39H30.5C30.9333 39 31.2917 39.1417 31.575 39.425C31.8583 39.7084 32 40.0667 32 40.5C32 40.9334 31.8583 41.2917 31.575 41.575C31.2917 41.8584 30.9333 42 30.5 42H9.5C9.06667 42 8.70833 41.8584 8.425 41.575C8.14167 41.2917 8 40.9334 8 40.5C8 40.0667 8.14167 39.7084 8.425 39.425C8.70833 39.1417 9.06667 39 9.5 39ZM17 29.3L10.1 22.4C9.53333 21.8334 9.24167 21.1417 9.225 20.325C9.20833 19.5084 9.48333 18.8 10.05 18.2L11.5 16.7L22.7 27.8L21.2 29.3C20.6333 29.8667 19.9333 30.15 19.1 30.15C18.2667 30.15 17.5667 29.8667 17 29.3ZM31.8 18.7L20.7 7.50002L22.2 6.05002C22.8 5.48335 23.5083 5.20835 24.325 5.22502C25.1417 5.24169 25.8333 5.53335 26.4 6.10002L33.3 13C33.8667 13.5667 34.15 14.2667 34.15 15.1C34.15 15.9334 33.8667 16.6334 33.3 17.2L31.8 18.7ZM40.85 38.95L15.1 13.2L17.2 11.1L42.95 36.85C43.25 37.15 43.4 37.5 43.4 37.9C43.4 38.3 43.25 38.65 42.95 38.95C42.65 39.25 42.3 39.4 41.9 39.4C41.5 39.4 41.15 39.25 40.85 38.95Z" fill="#1C1B1F"/>
</g>
</svg>
